<?xml version="1.0" standalone="no"?>
<svg version="1.0" xmlns="http://www.w3.org/2000/svg"
     width="2488.000000pt" height="2200.000000pt" viewBox="0 0 2488.000000 2200.000000"
     preserveAspectRatio="xMidYMid meet">

    <g transform="translate(0.000000,2200.000000) scale(0.100000,-0.100000)"
       fill="#000000" stroke="none">
        <path d="M17940 21604 c0 -5 9 -34 21 -64 11 -30 26 -77 33 -105 10 -41 71
-207 106 -290 5 -11 12 -36 16 -55 3 -19 14 -51 25 -70 10 -19 22 -51 28 -70
10 -38 27 -88 46 -135 21 -52 63 -169 75 -210 7 -22 18 -49 25 -60 6 -11 14
-33 17 -50 3 -16 16 -59 29 -93 24 -64 24 -64 4 -78 -11 -8 -51 -37 -90 -65
-68 -48 -209 -188 -263 -259 -51 -68 -141 -174 -217 -257 l-40 -43 -117 70
c-64 38 -121 70 -127 70 -6 0 -11 4 -11 10 0 5 -11 12 -25 16 -13 3 -29 12
-36 20 -6 8 -20 14 -30 14 -16 0 -13 -8 17 -61 18 -33 34 -65 34 -70 0 -5 3
-9 8 -9 4 0 12 -9 17 -19 31 -60 88 -151 100 -161 8 -7 15 -18 15 -25 0 -8 7
-26 16 -42 16 -28 16 -33 -13 -118 -17 -50 -43 -121 -57 -160 -15 -38 -36 -95
-46 -125 -10 -30 -23 -68 -30 -85 -7 -16 -19 -46 -27 -65 -7 -19 -20 -46 -28
-60 -64 -116 -80 -162 -100 -291 -10 -69 -18 -73 -135 -60 -56 6 -121 14 -144
18 l-41 6 70 -73 c72 -76 90 -94 145 -145 18 -16 36 -39 40 -50 4 -11 -3 -89
-16 -175 -15 -101 -23 -202 -24 -291 0 -158 -8 -176 -88 -204 -137 -49 -262
-104 -262 -115 0 -11 50 -26 134 -40 38 -6 81 -17 95 -24 14 -7 59 -18 99 -25
69 -12 74 -15 91 -49 11 -22 25 -93 36 -172 9 -74 27 -169 40 -210 12 -41 37
-122 55 -180 17 -58 54 -172 81 -255 28 -82 54 -163 58 -180 4 -16 18 -51 29
-77 12 -26 22 -55 22 -65 0 -10 9 -44 20 -76 44 -124 34 -132 -166 -132 -183
0 -206 -10 -112 -48 35 -13 106 -35 158 -47 81 -19 175 -51 230 -79 8 -4 24
-25 35 -47 11 -21 40 -64 63 -95 23 -31 42 -61 42 -68 0 -19 66 -157 79 -165
21 -13 111 -215 137 -309 20 -70 27 -124 31 -228 6 -139 1 -189 -18 -189 -21
0 -195 -92 -249 -133 -30 -22 -101 -87 -156 -144 -56 -56 -109 -103 -117 -103
-8 0 -34 12 -57 27 -37 25 -41 31 -37 58 3 17 21 55 41 85 20 30 36 58 36 63
0 4 -29 -22 -65 -58 -45 -45 -73 -65 -90 -65 -14 0 -25 5 -25 10 0 6 -6 10
-14 10 -8 0 -27 11 -43 24 -26 21 -58 38 -213 109 -30 14 -72 29 -92 32 -67
13 -68 22 -18 140 10 22 34 81 55 130 20 50 44 105 52 123 17 38 11 56 -7 22
-11 -21 -17 -28 -70 -94 -24 -28 -35 -44 -80 -111 -18 -28 -69 -99 -91 -128
-19 -24 -32 -22 -194 22 -48 14 -103 20 -178 20 -100 1 -110 3 -131 25 -13 13
-32 50 -42 82 -20 68 -83 234 -94 249 -4 6 -13 34 -19 63 -6 29 -18 69 -27 90
-26 63 -94 273 -94 292 0 11 -4 22 -10 25 -5 3 -10 17 -10 30 0 13 -4 26 -9
29 -15 9 -19 -87 -20 -472 0 -210 -5 -381 -10 -390 -7 -13 -36 -20 -126 -28
-80 -8 -122 -17 -134 -28 -10 -9 -21 -16 -26 -16 -5 0 -34 22 -64 48 -31 27
-63 53 -73 58 -9 5 -31 23 -50 39 -18 17 -59 50 -90 73 -32 24 -58 47 -58 52
0 6 -7 10 -15 10 -8 0 -15 5 -15 10 0 6 -5 10 -10 10 -6 0 -58 36 -116 81 -58
45 -108 78 -112 75 -6 -7 9 -56 38 -121 9 -22 39 -92 66 -155 26 -63 51 -117
55 -120 4 -3 12 -25 19 -50 6 -25 18 -55 25 -66 17 -26 55 -137 55 -158 0 -8
-12 -23 -26 -33 -14 -10 -34 -25 -43 -33 -9 -9 -33 -26 -54 -39 -44 -27 -64
-25 -190 26 -90 35 -113 37 -83 8 9 -9 30 -38 48 -63 17 -26 38 -51 45 -55 21
-13 15 -35 -14 -51 -16 -8 -45 -30 -65 -49 -21 -18 -49 -39 -63 -47 -27 -15
-27 -15 -177 69 l-56 31 5 43 c2 23 9 64 14 90 12 66 11 87 -5 87 -14 0 -68
-49 -123 -113 l-32 -37 -48 16 c-26 9 -80 31 -119 49 -40 18 -121 47 -180 64
-60 17 -122 35 -139 40 -16 5 -44 12 -61 16 -29 6 -61 46 -50 63 2 4 5 27 7
52 1 25 7 51 12 57 10 14 3 43 -12 43 -5 0 -16 -13 -24 -28 -7 -16 -32 -54
-55 -85 l-42 -57 -203 6 c-213 7 -352 -6 -462 -42 -92 -29 -230 -87 -250 -103
-11 -9 -37 -24 -57 -34 -21 -9 -38 -21 -38 -27 0 -5 -8 -10 -17 -10 -15 0
-103 -73 -103 -84 0 -3 -25 -30 -55 -61 -30 -32 -55 -60 -55 -62 0 -3 -26 -37
-58 -76 -54 -66 -103 -145 -156 -254 -12 -24 -26 -43 -33 -43 -22 0 -85 43
-127 87 -39 41 -66 55 -66 33 0 -5 6 -13 14 -17 7 -4 43 -47 80 -95 66 -87 66
-88 57 -130 -6 -24 -18 -61 -27 -83 -28 -65 -84 -287 -84 -332 0 -23 -8 -55
-17 -71 -19 -32 -11 -31 -275 -48 -111 -7 -111 -7 -82 71 17 46 30 112 46 243
12 94 4 215 -22 322 -15 65 -17 70 -69 180 -38 80 -45 90 -57 90 -12 0 -12 -5
-1 -50 12 -44 18 -102 23 -235 8 -178 -13 -265 -111 -471 -71 -147 -108 -190
-132 -151 -4 7 -24 24 -43 37 -36 24 -156 135 -220 203 -19 20 -39 37 -43 37
-20 0 -3 -44 60 -148 12 -20 35 -62 51 -92 16 -30 43 -77 60 -104 18 -28 32
-57 32 -65 0 -9 -28 -36 -61 -61 -33 -25 -83 -63 -112 -85 -130 -101 -143
-108 -183 -100 -29 5 -56 26 -124 93 -48 48 -108 105 -133 126 -69 57 -68 63
33 296 16 36 32 79 36 95 3 17 15 50 24 75 52 130 79 209 86 240 3 19 10 40
14 45 4 6 19 43 34 83 14 40 34 90 45 112 11 22 22 58 26 80 4 21 13 44 20 50
8 7 17 33 21 58 3 26 11 52 16 59 13 16 49 116 43 121 -2 2 -53 -46 -112 -108
-199 -207 -278 -285 -323 -320 -25 -19 -46 -38 -48 -42 -2 -4 -10 -8 -17 -8
-8 0 -22 -11 -33 -25 -11 -14 -24 -25 -28 -25 -5 0 -21 -10 -36 -23 -14 -12
-40 -33 -57 -47 -17 -14 -50 -42 -73 -64 -75 -67 -144 -116 -164 -116 -10 0
-32 9 -49 21 -45 31 -167 89 -187 89 -38 0 -51 43 -46 152 5 124 18 151 112
248 32 33 97 59 176 71 62 10 96 9 195 -5 66 -9 130 -19 143 -22 45 -13 20 12
-46 43 -37 18 -94 47 -128 66 -83 45 -178 62 -275 49 -75 -10 -179 -47 -179
-63 0 -5 -6 -9 -12 -9 -26 0 -166 -152 -200 -216 -11 -21 -29 -48 -39 -60 -10
-11 -19 -25 -19 -31 0 -17 -33 -40 -67 -46 -20 -4 -53 1 -89 13 -31 11 -70 20
-85 20 -21 0 -32 7 -44 30 -31 61 -15 150 64 350 88 220 101 256 101 270 0 9
12 60 26 114 14 55 29 134 34 177 5 43 16 98 24 123 15 45 41 181 50 271 13
119 17 734 6 850 -6 66 -15 158 -18 204 -11 130 -28 114 -36 -31 -7 -135 -24
-329 -36 -423 -37 -274 -57 -404 -75 -470 -7 -27 -18 -77 -25 -110 -6 -33 -16
-76 -22 -95 -6 -19 -13 -51 -15 -70 -3 -32 -20 -79 -42 -120 -5 -9 -12 -36
-16 -60 -8 -48 -48 -177 -59 -187 -3 -4 -6 -15 -6 -25 0 -29 -30 -68 -52 -68
-11 0 -47 7 -80 16 -86 22 -101 13 -56 -34 19 -20 45 -58 57 -84 21 -43 21
-48 6 -80 -28 -62 -91 -158 -145 -222 -37 -43 -131 -136 -138 -136 -18 0 -41
37 -52 85 -19 78 -51 156 -87 208 -18 26 -33 53 -34 60 0 6 -16 32 -35 57 -18
25 -46 63 -61 85 -15 22 -48 66 -73 97 -119 151 -136 173 -150 193 -44 66
-139 185 -176 222 -23 24 -48 56 -56 73 -11 26 -38 42 -38 23 0 -12 68 -275
81 -313 5 -14 22 -77 39 -140 17 -63 35 -124 40 -135 12 -27 61 -201 74 -265
2 -8 8 -28 15 -43 6 -16 11 -36 11 -45 0 -9 7 -49 15 -87 8 -39 17 -121 21
-182 6 -100 5 -113 -9 -113 -16 0 -143 126 -194 192 -15 20 -38 42 -50 49 -13
7 -23 16 -23 21 0 4 -26 34 -59 67 -43 43 -73 63 -112 76 -30 10 -63 24 -75
31 -11 8 -40 20 -65 28 -69 23 -131 45 -164 60 -101 46 -124 55 -161 66 -52
15 -61 34 -67 131 -4 58 -13 92 -36 140 -51 106 -162 209 -226 209 -44 0 -50
14 -49 112 1 65 10 123 28 193 31 117 45 235 27 235 -6 0 -11 -8 -11 -18 0
-10 -14 -44 -32 -77 -17 -33 -37 -72 -45 -87 -8 -15 -19 -30 -24 -34 -9 -5
-35 -43 -87 -123 -30 -48 -72 -137 -86 -185 -6 -21 -18 -42 -26 -47 -41 -21
-90 -39 -105 -39 -28 0 -74 39 -98 83 -27 52 -29 174 -4 256 9 30 15 57 12 59
-3 3 -6 3 -8 1 -10 -12 -118 -311 -128 -351 -15 -65 -29 -74 -82 -58 -91 30
-156 74 -157 109 0 8 -24 64 -54 125 -30 61 -60 129 -66 151 -7 22 -18 46 -24
54 -6 8 -12 62 -14 122 l-4 107 43 86 c29 59 66 112 119 169 41 45 89 100 105
122 25 34 61 75 137 156 20 22 41 25 232 37 81 6 153 15 159 21 12 12 16 10
-103 41 -127 33 -155 44 -158 63 -4 19 22 75 68 147 16 25 29 52 29 61 1 9 8
22 17 29 8 8 21 27 29 44 8 17 25 49 38 71 13 22 40 69 59 105 60 110 90 165
98 175 14 18 100 225 121 293 32 101 33 101 234 102 l170 1 -38 34 c-21 18
-54 41 -73 50 -19 9 -34 20 -34 24 0 5 -15 16 -34 25 -19 9 -46 30 -60 47 -28
32 -28 44 -4 159 5 25 13 87 18 139 5 52 14 117 19 145 5 28 13 80 16 116 14
151 27 155 134 45 114 -117 117 -105 25 93 -19 40 -34 74 -34 76 0 3 -24 55
-53 118 -62 129 -102 249 -112 326 -5 50 -52 158 -110 257 -13 22 -33 60 -45
85 -12 25 -26 53 -32 64 -31 58 -51 93 -62 106 -7 8 -16 23 -19 33 -10 28 -81
128 -129 182 -24 28 -47 58 -51 67 -7 19 7 57 37 101 26 38 52 85 70 127 9 19
25 51 36 71 10 20 17 39 14 42 -3 3 -49 -21 -102 -52 -181 -107 -234 -121
-307 -77 -22 13 -94 54 -160 92 -66 37 -142 81 -170 99 -59 37 -191 70 -340
85 -55 6 -127 17 -160 25 -104 25 -206 34 -277 26 -36 -5 -71 -12 -77 -15 -10
-6 -100 -28 -261 -62 -70 -15 -75 -15 -87 2 -7 10 -13 45 -13 80 0 60 29 234
48 284 5 14 12 39 16 55 l8 30 -26 -24 c-14 -14 -26 -30 -26 -37 0 -7 -10 -25
-23 -41 -38 -48 -84 -154 -102 -236 -10 -42 -21 -80 -26 -83 -5 -3 -9 -14 -9
-25 0 -37 -29 -76 -67 -93 -104 -44 -327 -234 -426 -363 -42 -55 -112 -183
-136 -248 -20 -57 -41 -160 -41 -209 0 -56 17 -171 30 -201 5 -11 16 -44 25
-72 9 -29 21 -55 26 -58 5 -4 9 -12 9 -20 0 -15 61 -123 94 -168 12 -15 51
-64 89 -109 37 -45 67 -89 67 -98 0 -35 -57 -159 -99 -218 -34 -46 -36 -52
-21 -52 17 0 70 40 148 113 39 37 77 67 82 67 9 0 87 -47 100 -60 9 -9 124
-87 135 -91 6 -2 57 -36 115 -74 96 -64 157 -97 265 -145 89 -40 147 -61 152
-57 2 3 -72 81 -165 174 -154 153 -291 307 -365 411 -74 102 -146 257 -153
328 -3 33 -10 63 -14 67 -17 19 26 220 52 243 10 10 18 23 18 30 0 15 110 130
160 166 53 39 106 51 146 32 58 -28 104 -154 104 -284 0 -64 11 -77 29 -32 6
15 26 54 44 87 18 33 55 100 81 149 27 48 65 106 86 127 l37 39 99 -1 c54 0
128 -4 164 -8 102 -13 258 -59 294 -86 18 -14 37 -25 42 -25 5 0 35 -26 66
-57 93 -96 155 -249 188 -463 6 -41 16 -98 22 -127 12 -55 0 -96 -43 -152 -21
-26 -133 -111 -205 -154 -26 -15 -45 -29 -43 -32 2 -2 71 2 152 8 107 8 153 8
165 0 23 -14 19 -116 -8 -233 -10 -47 -29 -125 -40 -175 -21 -90 -99 -265
-164 -370 -18 -27 -37 -59 -44 -70 -67 -110 -87 -132 -136 -156 -48 -22 -62
-24 -216 -24 l-165 0 55 -40 c30 -22 75 -54 100 -70 109 -73 124 -88 117 -117
-4 -14 -20 -40 -36 -57 -16 -17 -31 -36 -33 -41 -3 -8 -80 -89 -463 -483 -81
-83 -135 -127 -158 -127 -28 0 -90 42 -140 94 -46 48 -68 77 -151 202 -46 69
-106 181 -106 198 0 7 -7 19 -15 26 -8 7 -22 38 -32 69 -18 59 -30 81 -44 81
-5 0 -6 -6 -4 -12 8 -24 45 -294 55 -407 6 -63 15 -133 21 -155 19 -76 27
-131 30 -216 3 -81 3 -85 -21 -97 -14 -7 -35 -13 -47 -13 -13 0 -40 -6 -60
-14 -40 -15 -123 -31 -208 -41 -86 -10 -308 -46 -345 -55 -76 -20 -200 -34
-210 -24 -6 6 -13 35 -16 65 -4 30 -15 81 -25 114 -10 33 -23 91 -28 128 -5
37 -19 87 -30 111 -12 23 -21 52 -21 64 0 24 65 102 85 102 7 0 15 4 17 8 4
11 159 132 168 132 4 0 10 7 14 15 4 12 0 14 -22 9 -15 -4 -31 -10 -37 -14 -5
-3 -30 -12 -53 -19 -24 -7 -60 -22 -80 -34 -21 -11 -68 -37 -107 -56 -38 -20
-87 -49 -107 -64 -33 -25 -41 -28 -70 -19 -18 6 -51 13 -73 17 -22 4 -44 10
-50 14 -18 14 -162 32 -199 25 -51 -9 -86 2 -86 27 0 12 18 73 41 137 34 95
42 133 47 214 l5 98 103 0 c57 0 104 4 104 8 0 8 -91 44 -165 65 -22 7 -43 16
-46 20 -4 5 -10 50 -13 101 -4 50 -10 106 -13 125 l-6 34 44 -8 c74 -13 111
-10 188 15 l74 23 21 -25 c12 -14 26 -34 32 -44 18 -30 27 -9 14 30 -15 47 -6
85 36 149 19 28 34 55 34 60 0 5 9 20 20 34 11 14 20 34 20 44 0 22 35 43 61
36 34 -9 30 11 -6 33 -34 21 -35 23 -35 84 0 66 -23 161 -45 186 -18 21 -37
107 -29 133 3 11 22 44 40 73 19 29 34 56 34 60 0 4 10 18 22 31 40 43 12 34
-37 -12 -27 -25 -50 -45 -52 -45 -2 0 -20 -16 -40 -35 -20 -19 -39 -35 -44
-35 -4 0 -20 14 -36 30 -15 17 -48 43 -73 59 -53 33 -195 81 -237 81 -36 0
-41 11 -90 185 -6 22 -9 -1 -13 -89 l-5 -119 -94 -47 c-100 -52 -129 -83 -152
-165 -19 -68 -44 -85 -55 -37 -4 15 -14 47 -24 72 -62 161 -90 284 -91 405 -1
122 -10 197 -25 202 -7 2 -13 -38 -17 -124 -6 -113 -20 -203 -32 -203 -2 0
-20 8 -40 17 -53 25 -54 8 -1 -38 l47 -41 -3 -122 c-1 -66 1 -137 5 -156 8
-33 6 -37 -37 -70 -25 -19 -45 -39 -46 -43 0 -4 26 -5 59 -1 52 6 60 4 80 -17
11 -12 21 -26 21 -30 0 -5 12 -25 26 -46 l25 -38 -3 -230 -3 -230 -42 -130
c-39 -120 -47 -134 -90 -176 -62 -59 -92 -79 -119 -79 -27 0 -34 17 -34 83 0
164 -57 522 -89 561 -5 6 -14 31 -21 55 -6 25 -23 59 -36 76 -13 18 -24 36
-24 41 0 5 -11 21 -25 36 -14 15 -25 32 -25 37 0 6 -6 14 -13 18 -8 4 -43 42
-79 83 -36 41 -84 89 -106 105 -47 35 -72 81 -72 133 l0 37 -20 -32 c-11 -18
-24 -33 -29 -33 -9 0 -89 43 -131 70 -8 5 -33 19 -55 31 -22 12 -64 37 -92 55
-29 19 -53 30 -53 26 0 -5 84 -91 188 -193 178 -175 260 -264 311 -338 l24
-33 -18 -72 c-10 -39 -21 -89 -25 -111 -4 -22 -11 -48 -15 -59 -7 -16 -5 -17
12 -8 10 6 41 29 68 51 27 23 53 41 57 41 30 0 42 -196 19 -314 -6 -32 -14
-101 -17 -152 -8 -105 -21 -129 -54 -99 -24 22 -24 23 -5 -39 30 -98 8 -271
-36 -293 -32 -17 -110 -16 -134 1 -11 7 -40 17 -65 21 -24 4 -63 16 -86 25
-23 10 -45 16 -48 13 -3 -3 17 -33 44 -65 64 -76 64 -88 3 -88 -41 0 -58 8
-137 61 -50 34 -95 67 -101 74 -5 6 -49 38 -97 69 -48 31 -89 62 -91 69 -2 7
-8 8 -13 4 -4 -4 6 -34 23 -65 17 -31 47 -86 66 -122 19 -36 52 -99 75 -141
45 -83 43 -107 -7 -87 -45 18 -326 100 -406 119 -172 40 -432 75 -665 88
l-135 7 -94 -43 c-98 -45 -127 -50 -180 -32 -28 10 -31 15 -31 50 0 44 23 109
39 109 5 0 17 7 26 17 33 32 169 143 177 143 4 0 8 6 8 14 0 15 5 16 -154 -25
-47 -12 -66 -6 -66 20 0 20 73 81 97 81 7 0 13 4 13 9 0 5 10 13 21 16 12 4
37 17 57 28 l36 21 -45 12 c-24 6 -64 20 -89 31 -25 11 -66 26 -92 33 -48 14
-67 39 -82 112 -8 35 24 128 58 171 63 78 99 117 111 117 6 0 20 9 30 20 10
11 22 20 28 20 5 0 30 17 56 38 25 21 58 43 73 49 32 14 234 177 246 199 18
32 104 113 137 128 24 12 35 24 35 39 0 13 22 46 52 77 28 30 71 76 94 101 48
51 55 70 24 62 -11 -3 -20 -9 -20 -14 0 -5 -8 -9 -17 -9 -10 0 -38 -12 -63
-25 -25 -14 -82 -43 -128 -65 -89 -44 -125 -46 -168 -11 -46 37 -46 49 -4 187
21 71 44 158 51 193 15 81 45 117 102 126 23 4 47 11 52 15 6 4 32 11 58 14
26 4 64 14 85 23 l37 16 -34 9 c-18 5 -44 16 -57 25 -13 8 -58 27 -101 43
l-78 28 2 58 c2 33 9 111 18 174 8 63 19 183 25 265 6 83 14 159 19 170 10 23
31 200 31 259 0 94 102 435 166 553 55 101 43 110 -38 31 -106 -105 -184 -234
-240 -398 -73 -215 -108 -322 -108 -334 0 -19 -35 -32 -130 -51 -126 -25 -164
-36 -154 -44 5 -4 52 -18 105 -31 53 -12 103 -26 110 -31 11 -7 7 -30 -25
-126 -21 -65 -45 -140 -54 -168 -8 -27 -27 -86 -42 -130 -63 -184 -90 -278
-90 -315 0 -54 -53 -155 -89 -169 -14 -6 -62 -20 -106 -32 -88 -23 -81 -21
-182 -44 -44 -11 -73 -22 -73 -30 0 -7 35 -26 78 -41 42 -15 86 -33 97 -40 11
-7 39 -18 63 -25 23 -7 42 -16 42 -20 0 -7 -61 -102 -95 -147 -29 -40 -86 -84
-132 -104 l-53 -23 0 -8987 0 -8988 12440 0 12440 0 0 8171 0 8171 -52 -44
c-62 -52 -135 -102 -262 -177 -50 -29 -106 -64 -124 -78 -77 -58 -142 -34
-142 52 0 26 9 63 20 85 11 21 22 65 25 97 7 71 24 143 38 161 10 13 48 11
100 -4 17 -5 17 -3 -2 34 -11 23 -26 44 -32 47 -31 20 -26 72 17 192 20 54 43
59 159 33 50 -11 127 -20 173 -20 l82 0 0 39 c0 35 -6 45 -47 80 -27 21 -96
80 -155 130 l-106 90 -5 53 c-2 29 -10 93 -17 141 -15 107 -15 107 86 132 40
9 94 28 120 41 27 13 65 27 86 31 36 5 38 7 38 43 l0 37 -77 6 c-163 13 -271
30 -302 47 -27 14 -35 30 -80 165 -26 77 -54 138 -85 183 -49 73 -55 92 -31
112 8 7 25 30 37 51 12 22 25 39 30 39 7 0 38 52 38 65 0 15 -22 0 -74 -50
-74 -72 -105 -74 -135 -12 -12 24 -21 46 -21 49 0 14 -71 110 -98 133 -17 14
-33 36 -36 50 -4 14 -10 25 -15 25 -5 0 -48 29 -96 65 -48 36 -95 65 -105 65
-34 0 -60 52 -60 117 0 54 22 143 41 168 4 6 10 28 14 50 l6 40 -43 -46 c-24
-25 -60 -56 -81 -69 -20 -12 -49 -38 -64 -57 -26 -34 -29 -35 -78 -31 -36 4
-64 15 -102 41 -59 40 -98 50 -263 68 -63 7 -120 16 -126 21 -6 4 -22 41 -35
81 l-23 72 -7 -45 c-4 -25 -8 -63 -8 -86 -1 -50 -15 -64 -62 -64 -20 0 -70 -7
-110 -16 -58 -13 -79 -23 -99 -46 -14 -17 -35 -41 -47 -55 -12 -14 -27 -40
-33 -59 -13 -40 -29 -42 -85 -14 -21 11 -41 18 -43 15 -3 -2 1 -25 7 -50 16
-64 6 -91 -60 -160 -36 -37 -74 -91 -99 -140 -34 -67 -43 -97 -55 -190 -21
-155 -4 -253 65 -380 45 -83 154 -215 178 -215 5 0 1 39 -9 88 -10 48 -22 141
-28 207 -9 106 -8 128 8 192 11 42 30 86 45 104 14 17 26 36 26 44 0 7 7 19
16 26 9 7 20 23 24 35 5 12 35 42 67 66 72 55 113 64 268 60 65 -2 75 -5 125
-42 90 -64 90 -65 90 -122 0 -29 -9 -87 -20 -128 -11 -41 -20 -84 -20 -95 1
-22 3 -20 80 76 102 126 123 133 193 66 24 -22 122 -99 210 -163 26 -19 47
-42 47 -50 0 -23 -46 -105 -85 -150 l-35 -41 104 5 c101 4 105 4 129 -20 15
-15 35 -59 52 -112 22 -73 27 -114 32 -245 6 -159 0 -201 -31 -201 -7 0 -33
-16 -58 -35 -25 -18 -66 -44 -91 -57 -75 -38 -234 -138 -253 -159 -9 -10 -22
-19 -28 -20 -6 0 -31 -25 -56 -54 -25 -30 -62 -68 -82 -85 -35 -28 -40 -29
-98 -23 -104 10 -106 13 -102 202 5 219 0 218 -78 -24 -49 -153 -62 -169 -130
-160 -33 5 -59 2 -85 -9 -57 -24 -81 -21 -104 17 -25 41 -71 85 -71 68 0 -8
14 -29 30 -48 30 -33 37 -58 22 -79 -11 -16 -119 -65 -158 -71 -31 -5 -34 -3
-50 33 -9 22 -33 75 -54 119 -21 44 -46 105 -56 135 l-18 55 -6 -49 c-7 -59
-39 -89 -85 -81 -16 3 -35 12 -42 21 -12 16 -24 152 -23 259 0 126 8 342 15
417 3 44 3 119 -1 168 l-7 89 -21 -32 c-33 -50 -108 -223 -122 -282 -4 -16
-24 -64 -45 -106 -21 -42 -48 -108 -59 -145 -22 -71 -81 -195 -108 -226 -25
-30 -57 -22 -96 25 -20 23 -49 56 -65 72 -16 17 -48 59 -71 94 -23 35 -50 71
-59 81 -28 30 -93 116 -155 208 -16 23 -31 40 -34 38 -2 -3 3 -60 12 -128 32
-251 39 -315 43 -394 4 -76 3 -83 -19 -98 -15 -11 -44 -16 -90 -16 -67 0 -97
-13 -55 -24 12 -3 47 -6 78 -6 84 0 93 -11 97 -118 4 -80 2 -91 -17 -109 -11
-10 -27 -35 -36 -56 -13 -30 -20 -37 -44 -37 -15 0 -40 9 -54 20 -33 26 -43
25 -89 -6 -44 -31 -68 -73 -68 -120 0 -49 -37 -140 -64 -158 -13 -8 -36 -18
-51 -22 -14 -4 -36 -21 -47 -38 -23 -36 -88 -86 -111 -86 -7 0 -21 8 -31 18
-9 11 -42 36 -74 58 -31 21 -63 46 -69 56 -7 9 -37 31 -65 48 -29 18 -63 41
-75 53 -39 35 -38 10 4 -75 111 -229 111 -231 119 -403 6 -122 5 -135 -20
-209 -14 -43 -26 -89 -26 -101 0 -42 -22 -85 -55 -105 -62 -38 -68 -33 -172
134 -17 28 -42 64 -55 81 -13 16 -31 47 -40 68 -10 21 -22 36 -28 32 -5 -3
-10 -38 -10 -77 0 -102 -41 -221 -87 -249 -18 -11 -33 -27 -33 -34 0 -48 -89
-35 -232 34 -57 27 -128 59 -158 71 -30 12 -77 39 -105 60 -27 20 -60 43 -72
49 -56 29 -63 119 -18 211 20 40 50 116 106 265 10 28 28 86 40 130 12 44 36
110 55 146 18 36 40 94 49 129 9 35 23 77 32 93 16 32 7 53 -11 23 -43 -71
-164 -224 -241 -303 -27 -29 -65 -71 -84 -93 -18 -22 -38 -40 -43 -40 -5 0
-41 -24 -79 -54 -38 -30 -94 -67 -124 -82 -50 -24 -58 -25 -88 -14 -17 7 -47
27 -66 44 -38 35 -114 148 -126 186 -4 14 -19 41 -34 60 -45 60 -69 97 -75
118 -6 18 -17 32 -75 97 -21 23 -82 148 -106 215 -9 25 -26 72 -37 105 -12 33
-30 75 -40 93 -24 44 -24 112 2 145 15 18 37 29 78 37 31 7 62 15 67 19 6 4
42 20 80 36 92 37 99 45 39 45 -27 0 -69 5 -93 11 -23 5 -65 11 -92 13 -73 6
-138 34 -155 67 -8 16 -26 36 -39 45 -14 9 -25 21 -25 26 0 5 -9 30 -21 55
-11 25 -25 73 -30 106 -6 34 -16 75 -24 92 -30 65 -40 186 -39 466 l2 275 32
95 c36 104 74 170 167 288 61 77 95 101 147 101 24 0 323 -118 397 -156 45
-24 138 -54 167 -54 8 0 -14 30 -48 68 -35 37 -73 83 -85 102 -13 19 -73 86
-135 149 -88 90 -112 120 -112 143 -1 32 31 71 96 115 23 16 73 53 113 84 125
99 244 171 318 195 38 12 111 38 162 58 51 20 105 36 121 36 16 0 47 6 68 13
22 8 90 17 152 20 l113 7 15 -36 c16 -38 12 -72 -22 -206 -15 -59 -77 -381
-89 -458 -3 -25 -11 -66 -17 -92 -7 -26 -9 -51 -5 -55 7 -7 67 45 67 58 0 4
12 21 28 37 44 48 82 94 82 100 0 3 22 31 48 61 26 31 63 76 82 101 19 25 48
60 64 77 16 18 34 42 40 52 6 11 34 47 61 80 72 86 115 83 155 -11 12 -29 31
-64 41 -77 10 -12 21 -39 25 -60 4 -20 15 -53 26 -74 31 -62 50 -178 45 -270
-3 -45 -10 -212 -16 -371 -11 -307 -11 -314 -43 -420 -20 -66 -77 -164 -115
-197 -10 -9 -54 -56 -98 -104 -44 -49 -87 -96 -96 -104 -198 -195 -307 -288
-460 -394 -53 -37 -102 -73 -109 -82 -7 -8 -17 -15 -22 -15 -5 0 -14 -5 -21
-11 -7 -6 -36 -25 -66 -42 -121 -72 -223 -138 -219 -142 12 -12 400 58 425 77
6 5 40 17 75 27 74 21 146 50 301 120 26 11 54 21 63 21 8 0 37 11 64 25 67
34 89 32 123 -9 15 -19 27 -38 27 -42 0 -8 65 -99 100 -139 44 -51 170 -169
170 -159 0 5 -16 34 -36 64 -88 132 -154 290 -154 366 0 42 1 43 68 80 199
110 264 170 500 455 83 102 166 193 182 202 31 19 125 32 305 42 241 13 375
24 388 32 20 12 -30 40 -158 88 -38 15 -101 42 -140 61 -38 18 -99 43 -135 54
-36 12 -72 28 -80 35 -9 8 -33 21 -54 30 -35 15 -38 19 -33 48 3 18 12 57 22
87 9 30 21 73 27 95 12 51 3 251 -22 450 -10 83 -22 190 -26 239 -6 81 -5 90
13 105 25 20 233 267 233 276 0 6 20 33 61 83 22 26 -1 23 -43 -6 -24 -16 -68
-42 -98 -57 -30 -15 -63 -34 -73 -43 -9 -8 -25 -20 -36 -26 -42 -25 -101 -56
-105 -56 -6 0 -83 102 -128 171 -20 30 -44 61 -52 68 -9 8 -16 19 -16 25 0 6
-11 23 -25 38 -14 15 -25 30 -25 33 0 12 -278 383 -294 392 -32 19 -46 80 -55
233 -9 144 -27 237 -52 265 -5 5 -9 19 -9 30 0 12 -3 25 -7 29 -4 4 -19 36
-33 71 l-25 63 0 -241 c0 -219 -2 -246 -20 -289 -24 -56 -29 -56 -145 3 -202
102 -292 143 -365 166 -44 13 -89 28 -100 33 -11 5 -73 11 -138 15 -157 8
-162 10 -178 82 -7 32 -18 67 -25 78 -6 11 -15 38 -19 60 -3 22 -22 85 -40
140 -19 55 -35 111 -37 124 -6 45 -24 32 -36 -26 -7 -32 -21 -98 -32 -148 -12
-49 -25 -119 -30 -155 -18 -120 -14 -116 -143 -124 -100 -6 -194 -26 -222 -46
-5 -4 -44 -17 -85 -29 -41 -12 -104 -33 -140 -47 -36 -13 -81 -24 -100 -24
-37 0 -89 30 -111 66 -17 26 -185 274 -214 314 -11 15 -47 68 -80 116 -33 49
-94 137 -137 196 -42 59 -82 117 -89 129 -6 13 -37 57 -68 97 -31 41 -60 81
-66 90 -19 28 -55 65 -55 56z m-14340 -3846 c32 -54 27 -100 -18 -148 -43 -45
-57 -47 -122 -21 -40 17 -45 22 -42 47 4 26 43 113 65 142 5 6 29 12 53 12 39
0 47 -4 64 -32z m20250 -878 c6 -11 8 -37 5 -58 -10 -57 -55 -233 -70 -267 -7
-16 -26 -63 -44 -104 -17 -40 -31 -80 -31 -87 0 -7 -11 -21 -25 -30 -31 -20
-64 -9 -142 50 -42 31 -53 45 -53 67 0 24 -4 29 -24 29 -12 0 -38 10 -57 23
-28 19 -35 30 -37 63 -3 43 34 134 86 209 26 37 34 41 102 56 41 8 86 22 100
29 23 13 123 37 162 39 10 1 22 -8 28 -19z m-850 -621 c86 -26 97 -35 103 -86
3 -27 13 -69 22 -93 9 -25 21 -69 25 -99 14 -90 27 -81 34 26 4 54 9 117 13
141 l5 42 48 -26 c26 -14 76 -52 111 -83 l63 -58 -26 -31 c-35 -41 -130 -118
-157 -127 -12 -4 -28 -2 -36 5 -7 6 -28 13 -45 15 -18 2 -52 16 -76 30 -24 14
-65 37 -91 52 -88 50 -230 170 -242 204 -15 44 -15 44 27 70 65 39 135 45 222
18z m-9379 -2277 c8 -39 29 -67 29 -39 0 10 7 29 16 42 15 22 23 25 81 25 60
0 193 -33 193 -48 0 -4 12 -61 26 -127 35 -166 35 -161 -1 -157 -16 1 -70 4
-120 5 -104 2 -141 -10 -170 -55 -11 -17 -45 -44 -75 -61 -30 -16 -62 -35 -70
-42 -59 -50 -133 -67 -197 -45 -27 10 -37 7 -92 -26 -33 -20 -61 -40 -61 -44
0 -4 -15 -15 -32 -24 -18 -10 -48 -28 -66 -41 -19 -13 -55 -27 -80 -30 -75 -9
-196 -37 -210 -48 -7 -5 -14 -8 -17 -6 -5 6 22 140 31 148 3 3 33 6 67 7 33 0
62 5 64 11 2 5 -15 33 -37 61 l-41 51 38 73 c52 98 85 148 117 177 24 22 28
23 52 11 23 -13 84 -90 84 -108 0 -4 12 -15 25 -25 l25 -18 0 140 0 141 38 24
c20 13 62 29 92 35 30 7 62 16 70 21 8 6 60 9 115 8 l99 -3 7 -33z m614 -102
c123 -55 215 -101 215 -108 0 -4 -20 -28 -44 -53 -24 -26 -49 -55 -57 -66 -32
-44 -54 -51 -117 -36 -31 7 -77 17 -102 22 -25 5 -57 12 -72 15 -30 7 -37 31
-18 64 5 9 24 57 41 106 l32 88 36 -5 c20 -2 59 -15 86 -27z"/>
        <path d="M9735 16367 c-4 -10 -5 -21 -1 -24 10 -10 18 4 13 24 -4 17 -4 17
-12 0z"/>
    </g>
</svg>
